<?xml version="1.0" encoding="UTF-8"?>
<svg version="1.1" xmlns="http://www.w3.org/2000/svg" width="512" height="512">
<path d="M0 0 C1.42391793 -0.00445668 1.42391793 -0.00445668 2.87660187 -0.0090034 C6.03030784 -0.01761536 9.18397551 -0.01919226 12.33769226 -0.02069092 C14.61048461 -0.02532454 16.8832762 -0.03034993 19.15606689 -0.03573608 C25.31371288 -0.04881268 31.47134798 -0.05529617 37.62900567 -0.05974674 C41.48496345 -0.06268612 45.34091832 -0.06679261 49.19687462 -0.07125092 C59.90388689 -0.08335251 70.61089532 -0.09373608 81.31791401 -0.09712601 C82.00170103 -0.09734557 82.68548805 -0.09756514 83.38999588 -0.09779136 C84.07528807 -0.09800964 84.76058025 -0.09822791 85.46663886 -0.09845281 C86.85497177 -0.09889625 88.24330467 -0.09934281 89.63163757 -0.09979248 C90.66459806 -0.10012463 90.66459806 -0.10012463 91.71842643 -0.10046348 C102.8519258 -0.1044031 113.98535939 -0.12183469 125.1188334 -0.145152 C136.59001268 -0.16897959 148.06114972 -0.18107612 159.53235501 -0.18249393 C165.9565077 -0.1835365 172.38056754 -0.18932648 178.80469704 -0.20731354 C184.85816558 -0.22393361 190.91147289 -0.22588288 196.96495628 -0.21717453 C199.17018952 -0.21641146 201.37543193 -0.22064872 203.5806427 -0.23063278 C221.13209892 -0.30534966 239.22729413 0.29246522 255.93022156 6.26544189 C256.79187927 6.56547119 257.65353699 6.86550049 258.54130554 7.17462158 C281.2380034 15.4509753 298.69020181 32.36354691 309.05522156 54.14044189 C318.15610033 76.06742961 318.20705314 99.44801572 318.20048523 122.79718018 C318.20348356 124.94263263 318.20688762 127.08808454 318.21066284 129.23353577 C318.21943869 135.02106594 318.22183824 140.80858131 318.22247863 146.5961175 C318.22319281 150.22345156 318.22533406 153.85078194 318.22797585 157.47811508 C318.2372082 170.16536444 318.2413134 182.85260335 318.24052429 195.53985596 C318.23992414 207.31347797 318.25046913 219.08705408 318.26626796 230.86066449 C318.27939967 241.0132303 318.28470583 251.16578121 318.28406888 261.31835544 C318.28381554 267.36235033 318.28657545 273.40630436 318.29724693 279.45029068 C318.30702323 285.14183992 318.30694272 290.83331004 318.2997303 296.52486229 C318.29869618 298.59625427 318.30097624 300.66765144 318.30709076 302.73903465 C318.40510261 338.28570543 314.70944532 369.61213896 289.05522156 396.14044189 C288.39135437 396.83009033 287.72748718 397.51973877 287.04350281 398.23028564 C262.85628106 421.49608942 228.01177762 422.29455222 196.52787781 422.28570557 C194.38419538 422.28870332 192.24051348 422.29210725 190.09683228 422.29588318 C184.30917574 422.3046661 178.52153402 422.30705891 172.73387146 422.30769897 C169.10636748 422.30841288 165.47886719 422.31055366 161.85136414 422.31319618 C149.16296655 422.32243174 136.47457942 422.32653344 123.78617859 422.32574463 C112.01316536 422.32514479 100.24019808 422.33568288 88.46719646 422.35148829 C78.31548443 422.36462481 68.1637873 422.36992595 58.01206684 422.36928922 C51.96858411 422.36903596 45.92514225 422.3717908 39.88166809 422.38246727 C34.18848745 422.39225139 28.49538589 422.39215788 22.80220222 422.38495064 C20.73123113 422.38391738 18.66025484 422.38619122 16.58929253 422.3923111 C-18.24382816 422.48844948 -50.88488454 419.50795486 -77.12837219 394.03887939 C-104.09043208 366.83013174 -104.11629379 328.28074644 -104.07417297 292.46075439 C-104.07553263 290.48042774 -104.0773157 288.50010133 -104.07948303 286.51977539 C-104.08399031 281.20573032 -104.08229578 275.89170496 -104.07910395 270.57765961 C-104.0765453 264.97635348 -104.07892754 259.37504888 -104.08049011 253.77374268 C-104.08230168 244.37318626 -104.07993221 234.97263773 -104.07514954 225.57208252 C-104.06970889 214.75435567 -104.07147226 203.93664768 -104.07697594 193.11892128 C-104.08153607 183.77645521 -104.0821435 174.43399476 -104.07953727 165.09152794 C-104.07799038 159.53558417 -104.07773663 153.97964923 -104.08107376 148.42370605 C-104.0839949 143.19666933 -104.08190014 137.96965656 -104.0761795 132.74262238 C-104.07487439 130.84173878 -104.07520692 128.94085312 -104.07744217 127.0399704 C-104.08761018 117.50248896 -103.96899902 107.98909756 -103.51481628 98.46124268 C-103.47817529 97.6691081 -103.44153429 96.87697353 -103.40378296 96.06083488 C-101.94626622 68.57904616 -93.48459559 43.82906203 -73.28852844 24.61309814 C-52.77483079 6.96528472 -26.62008561 -0.0266033 0 0 Z " fill="#F6F0E6" transform="translate(148.9447784423828,49.85955810546875)"/>
<path d="M0 0 C1.43066299 -0.01051392 1.43066299 -0.01051392 2.89022827 -0.02124023 C6.02811206 -0.03877657 9.1650863 -0.02721171 12.30297852 -0.01367188 C14.49341504 -0.01636826 16.6838504 -0.02025189 18.87428284 -0.02526855 C23.45976178 -0.03115791 28.04492851 -0.02261936 32.63037109 -0.00390625 C38.49584312 0.01886912 44.3605824 0.00576512 50.22602749 -0.01819611 C54.74804663 -0.03268063 59.26989334 -0.02803562 63.7919178 -0.01768494 C65.95398102 -0.0150243 68.1160601 -0.01826397 70.27810478 -0.02760315 C73.30561389 -0.03781072 76.33195261 -0.02220767 79.359375 0 C80.24533859 -0.00809692 81.13130219 -0.01619385 82.04411316 -0.02453613 C87.89232805 0.05456824 92.36261127 1.20511446 97.24438477 4.51757812 C101.67660229 9.29073546 102.65145163 12.45488849 102.59594727 18.83789062 C102.03662915 23.10113757 100.15991197 26.3872226 97.24438477 29.51757812 C95.924746 30.21095808 94.59242568 30.88117581 93.24438477 31.51757812 C94.6494357 38.31329479 96.49320429 44.85200472 98.61938477 51.45507812 C98.91071289 52.37998047 99.20204102 53.30488281 99.50219727 54.2578125 C101.20772789 59.5950761 103.1125738 64.79278184 105.23120117 69.97875977 C107.04506696 74.52391405 108.64110683 79.14478692 110.24438477 83.76757812 C110.76875122 85.27384766 110.76875122 85.27384766 111.30371094 86.81054688 C113.58214819 93.42093938 115.60626617 100.04304641 117.45141602 106.78710938 C118.43521088 110.17465918 119.79029195 113.30645649 121.24438477 116.51757812 C124.75441139 125.73139801 127.79489272 135.09555358 130.80297852 144.48242188 C131.27626009 145.95703951 131.74956785 147.43164873 132.22290039 148.90625 C132.9529584 151.18067091 133.6819858 153.45539495 134.40771484 155.73120117 C136.80473846 163.24349753 139.21973907 170.67669554 142.24072266 177.96557617 C144.23623358 183.03954252 145.86760887 188.24548542 147.56030273 193.42663574 C149.51317851 199.39573087 151.4972538 205.35465359 153.47387695 211.31591797 C153.98861757 212.87025195 154.50228525 214.42494164 155.01489258 215.97998047 C157.52058613 223.57824943 160.04498233 231.13172765 162.99438477 238.57226562 C168.57564504 252.89623068 169.96165343 270.09714418 164.56860352 284.72460938 C158.64098122 297.22682159 149.9790236 304.53893096 137.24438477 309.51757812 C133.73021453 310.6889682 130.56584471 310.66570372 126.90982056 310.66474915 C126.1568889 310.66842583 125.40395724 310.67210252 124.62820947 310.67589062 C122.09742901 310.6869305 119.56668961 310.69077191 117.03588867 310.69458008 C115.22404856 310.7008448 113.41220973 310.70749161 111.60037231 310.7144928 C105.64057308 310.73554507 99.68077357 310.74590037 93.72094727 310.75585938 C91.66733156 310.75990733 89.61371599 310.76402427 87.56010056 310.76820946 C77.90599014 310.78726839 68.25188737 310.80149458 58.59776175 310.80982143 C47.46941209 310.81957885 36.34126212 310.84585633 25.21298277 310.88632232 C16.60387147 310.91654795 7.99481716 310.93129665 -0.61434615 310.93460244 C-5.7517804 310.93694675 -10.88900151 310.9458255 -16.02637863 310.97106361 C-20.86749799 310.99446044 -25.70826565 310.99853115 -30.54942703 310.98830223 C-32.31779403 310.98780947 -34.08617901 310.99405241 -35.85449219 311.00785828 C-48.90986359 311.10400752 -61.38027182 310.44505318 -71.75952148 301.49414062 C-81.88535585 291.46738487 -85.85323876 280.81391745 -85.98999023 266.72851562 C-85.99514648 265.62765625 -86.00030273 264.52679688 -86.00561523 263.39257812 C-86.02624023 262.31492187 -86.04686523 261.23726563 -86.06811523 260.12695312 C-86.11732906 249.91508433 -83.65197293 241.47780044 -79.77514648 232.12695312 C-78.30194978 228.35647266 -77.18739723 224.49875953 -76.02514648 220.62304688 C-74.34763481 215.11813369 -72.51209137 209.66448471 -70.69311523 204.20507812 C-70.35248047 203.17882324 -70.0118457 202.15256836 -69.66088867 201.09521484 C-68.26522886 196.91570974 -66.86719508 192.74605186 -65.29077148 188.63085938 C-63.07835883 182.83026685 -61.19912241 176.91224179 -59.25561523 171.01757812 C-54.90101791 157.81007006 -54.90101791 157.81007006 -53.25561523 153.52148438 C-50.58695354 146.56127649 -48.39069144 139.42211782 -46.07202148 132.33984375 C-43.0643112 123.23063366 -43.0643112 123.23063366 -41.25561523 119.05273438 C-38.83646295 113.35134684 -37.10802865 107.42329219 -35.25561523 101.51757812 C-34.4776632 99.0373746 -33.69650731 96.55817331 -32.91186523 94.08007812 C-32.56961914 92.98824219 -32.22737305 91.89640625 -31.87475586 90.77148438 C-30.75561523 87.51757812 -30.75561523 87.51757812 -29.26928711 84.05859375 C-27.75336863 80.51232253 -26.5407213 76.97574149 -25.38061523 73.29882812 C-25.06471436 72.30647156 -25.06471436 72.30647156 -24.74243164 71.29406738 C-24.07684274 69.20293902 -23.41566015 67.11046248 -22.75561523 65.01757812 C-21.88463805 62.25586528 -21.00901355 59.49568839 -20.13061523 56.73632812 C-19.74647461 55.51880859 -19.36233398 54.30128906 -18.96655273 53.046875 C-17.72663411 49.43311218 -16.29183077 46.01362031 -14.75561523 42.51757812 C-14.00982969 40.54461369 -13.27907357 38.56585831 -12.56811523 36.58007812 C-12.0518457 35.14341797 -12.0518457 35.14341797 -11.52514648 33.67773438 C-11.27120117 32.96488281 -11.01725586 32.25203125 -10.75561523 31.51757812 C-11.53549805 31.40027344 -12.31538086 31.28296875 -13.11889648 31.16210938 C-16.74358815 30.27607364 -17.70558213 28.55728238 -19.75561523 25.51757812 C-22.23198814 21.17947163 -22.52909229 17.42432322 -21.75561523 12.51757812 C-19.66876936 7.21661695 -16.86748773 4.16620233 -11.85149956 1.37838745 C-7.9915699 -0.20694024 -4.12013111 -0.03756852 0 0 Z " fill="#FBF9FA" transform="translate(215.755615234375,100.482421875)"/>
<path d="M0 0 C0.67731299 -0.00297112 1.35462597 -0.00594224 2.05246359 -0.0090034 C4.3387447 -0.01772605 6.62497367 -0.01920163 8.91127014 -0.02069092 C10.54362094 -0.02531653 12.17597065 -0.03034084 13.80831909 -0.03573608 C18.25453294 -0.04888581 22.70073167 -0.0553099 27.14696193 -0.05974674 C29.92144841 -0.06267298 32.69593072 -0.06677689 35.47041512 -0.07125092 C44.14153587 -0.08493186 52.81264714 -0.09459591 61.48377794 -0.09845281 C71.51138716 -0.10293692 81.5388603 -0.12049864 91.56642812 -0.1494534 C99.30569648 -0.17102915 107.04492644 -0.18115486 114.78422457 -0.18249393 C119.41213074 -0.1835448 124.03990909 -0.18951231 128.66778374 -0.20731354 C133.01880424 -0.22372373 137.36959988 -0.22598434 141.72064018 -0.21717453 C143.32107645 -0.21640038 144.92152447 -0.22079621 146.52193069 -0.23063278 C148.70003286 -0.24323907 150.87732487 -0.23753852 153.05541992 -0.22705078 C154.88691794 -0.22925062 154.88691794 -0.22925062 156.75541592 -0.2314949 C157.69122525 -0.10875576 158.62703459 0.01398338 159.59120178 0.14044189 C161.2751402 2.66634952 162.07893463 4.27684436 162.96620178 7.08184814 C163.35098694 8.27705078 163.35098694 8.27705078 163.74354553 9.49639893 C164.02327209 10.36893311 164.30299866 11.24146729 164.59120178 12.14044189 C165.23442126 14.06709776 165.88037961 15.99284085 166.52870178 17.91778564 C167.21622273 19.97116405 167.90372241 22.02454957 168.59120178 24.07794189 C169.10553772 25.60838135 169.10553772 25.60838135 169.63026428 27.16973877 C171.48886399 32.72780315 173.2698347 38.29353673 174.89247131 43.925354 C175.63079554 46.26596048 176.51855261 48.50225947 177.46620178 50.76544189 C183.33895753 65.33351816 188.34667082 80.35181101 182.68885803 95.95684814 C179.87900475 101.54655627 176.79208151 105.16209996 171.03579712 107.72090149 C163.65684165 110.08010574 155.8354209 109.5669368 148.17298889 109.54449463 C146.41126067 109.55020362 144.64953614 109.55716992 142.88781738 109.56529236 C138.1234486 109.5831774 133.35926446 109.58206454 128.59487224 109.57634997 C124.61118012 109.57325234 120.62752318 109.57935674 116.64383608 109.58538872 C107.24499507 109.59941614 97.84624499 109.59788663 88.44740295 109.58648682 C78.76166713 109.57499843 69.07620798 109.58909746 59.39050859 109.61588329 C51.06158882 109.6380517 42.73275583 109.64467535 34.40380865 109.63880688 C29.43487864 109.63543992 24.4661261 109.63783548 19.49722099 109.65505791 C14.82589959 109.67054388 10.15498795 109.66655319 5.48368263 109.64775276 C3.7728877 109.64407192 2.06206228 109.64716062 0.35129547 109.65763855 C-17.32988384 109.75763678 -17.32988384 109.75763678 -25.15879822 102.64044189 C-31.31488849 94.31406896 -32.31004173 84.15085261 -31.40879822 74.14044189 C-30.31612442 69.127856 -28.78549997 64.31519933 -27.15879822 59.45294189 C-26.76305603 58.21221924 -26.36731384 56.97149658 -25.95957947 55.69317627 C-24.28491862 50.50721834 -22.55592333 45.3782184 -20.46739197 40.34356689 C-17.41589421 32.9250605 -15.14419361 25.21864429 -12.72129822 17.57794189 C-11.97584467 15.22955888 -11.22929997 12.88155562 -10.47891235 10.53474426 C-10.01521018 9.08445749 -9.5543468 7.63325936 -9.09661865 6.18107605 C-7.08834555 -0.10177345 -6.58040051 0.01603648 0 0 Z " fill="#C227A2" transform="translate(179.40879821777344,282.85955810546875)"/>
<path d="M0 0 C1.43066299 -0.01051392 1.43066299 -0.01051392 2.89022827 -0.02124023 C6.02811206 -0.03877657 9.1650863 -0.02721171 12.30297852 -0.01367188 C14.49341504 -0.01636826 16.6838504 -0.02025189 18.87428284 -0.02526855 C23.45976178 -0.03115791 28.04492851 -0.02261936 32.63037109 -0.00390625 C38.49584312 0.01886912 44.3605824 0.00576512 50.22602749 -0.01819611 C54.74804663 -0.03268063 59.26989334 -0.02803562 63.7919178 -0.01768494 C65.95398102 -0.0150243 68.1160601 -0.01826397 70.27810478 -0.02760315 C73.30561389 -0.03781072 76.33195261 -0.02220767 79.359375 0 C80.24533859 -0.00809692 81.13130219 -0.01619385 82.04411316 -0.02453613 C87.89232805 0.05456824 92.36261127 1.20511446 97.24438477 4.51757812 C101.67660229 9.29073546 102.65145163 12.45488849 102.59594727 18.83789062 C102.03662915 23.10113757 100.15991197 26.3872226 97.24438477 29.51757812 C95.924746 30.21095808 94.59242568 30.88117581 93.24438477 31.51757812 C94.6494357 38.31329479 96.49320429 44.85200472 98.61938477 51.45507812 C98.91071289 52.37998047 99.20204102 53.30488281 99.50219727 54.2578125 C101.20772789 59.5950761 103.1125738 64.79278184 105.23120117 69.97875977 C107.04506696 74.52391405 108.64110683 79.14478692 110.24438477 83.76757812 C110.76875122 85.27384766 110.76875122 85.27384766 111.30371094 86.81054688 C113.58214819 93.42093938 115.60626617 100.04304641 117.45141602 106.78710938 C118.43521088 110.17465918 119.79029195 113.30645649 121.24438477 116.51757812 C124.75441139 125.73139801 127.79489272 135.09555358 130.80297852 144.48242188 C131.27626009 145.95703951 131.74956785 147.43164873 132.22290039 148.90625 C132.9529584 151.18067091 133.6819858 153.45539495 134.40771484 155.73120117 C136.80473846 163.24349753 139.21973907 170.67669554 142.24072266 177.96557617 C144.23623358 183.03954252 145.86760887 188.24548542 147.56030273 193.42663574 C149.51317851 199.39573087 151.4972538 205.35465359 153.47387695 211.31591797 C153.98861757 212.87025195 154.50228525 214.42494164 155.01489258 215.97998047 C157.52058613 223.57824943 160.04498233 231.13172765 162.99438477 238.57226562 C168.57564504 252.89623068 169.96165343 270.09714418 164.56860352 284.72460938 C158.64098122 297.22682159 149.9790236 304.53893096 137.24438477 309.51757812 C133.73021453 310.6889682 130.56584471 310.66570372 126.90982056 310.66474915 C126.1568889 310.66842583 125.40395724 310.67210252 124.62820947 310.67589062 C122.09742901 310.6869305 119.56668961 310.69077191 117.03588867 310.69458008 C115.22404856 310.7008448 113.41220973 310.70749161 111.60037231 310.7144928 C105.64057308 310.73554507 99.68077357 310.74590037 93.72094727 310.75585938 C91.66733156 310.75990733 89.61371599 310.76402427 87.56010056 310.76820946 C77.90599014 310.78726839 68.25188737 310.80149458 58.59776175 310.80982143 C47.46941209 310.81957885 36.34126212 310.84585633 25.21298277 310.88632232 C16.60387147 310.91654795 7.99481716 310.93129665 -0.61434615 310.93460244 C-5.7517804 310.93694675 -10.88900151 310.9458255 -16.02637863 310.97106361 C-20.86749799 310.99446044 -25.70826565 310.99853115 -30.54942703 310.98830223 C-32.31779403 310.98780947 -34.08617901 310.99405241 -35.85449219 311.00785828 C-48.90986359 311.10400752 -61.38027182 310.44505318 -71.75952148 301.49414062 C-81.88535585 291.46738487 -85.85323876 280.81391745 -85.98999023 266.72851562 C-85.99514648 265.62765625 -86.00030273 264.52679688 -86.00561523 263.39257812 C-86.02624023 262.31492187 -86.04686523 261.23726563 -86.06811523 260.12695312 C-86.11732906 249.91508433 -83.65197293 241.47780044 -79.77514648 232.12695312 C-78.30194978 228.35647266 -77.18739723 224.49875953 -76.02514648 220.62304688 C-74.34763481 215.11813369 -72.51209137 209.66448471 -70.69311523 204.20507812 C-70.35248047 203.17882324 -70.0118457 202.15256836 -69.66088867 201.09521484 C-68.26522886 196.91570974 -66.86719508 192.74605186 -65.29077148 188.63085938 C-63.07835883 182.83026685 -61.19912241 176.91224179 -59.25561523 171.01757812 C-54.90101791 157.81007006 -54.90101791 157.81007006 -53.25561523 153.52148438 C-50.58695354 146.56127649 -48.39069144 139.42211782 -46.07202148 132.33984375 C-43.0643112 123.23063366 -43.0643112 123.23063366 -41.25561523 119.05273438 C-38.83646295 113.35134684 -37.10802865 107.42329219 -35.25561523 101.51757812 C-34.4776632 99.0373746 -33.69650731 96.55817331 -32.91186523 94.08007812 C-32.56961914 92.98824219 -32.22737305 91.89640625 -31.87475586 90.77148438 C-30.75561523 87.51757812 -30.75561523 87.51757812 -29.26928711 84.05859375 C-27.75336863 80.51232253 -26.5407213 76.97574149 -25.38061523 73.29882812 C-25.06471436 72.30647156 -25.06471436 72.30647156 -24.74243164 71.29406738 C-24.07684274 69.20293902 -23.41566015 67.11046248 -22.75561523 65.01757812 C-21.88463805 62.25586528 -21.00901355 59.49568839 -20.13061523 56.73632812 C-19.74647461 55.51880859 -19.36233398 54.30128906 -18.96655273 53.046875 C-17.72663411 49.43311218 -16.29183077 46.01362031 -14.75561523 42.51757812 C-14.00982969 40.54461369 -13.27907357 38.56585831 -12.56811523 36.58007812 C-12.0518457 35.14341797 -12.0518457 35.14341797 -11.52514648 33.67773438 C-11.27120117 32.96488281 -11.01725586 32.25203125 -10.75561523 31.51757812 C-11.53549805 31.40027344 -12.31538086 31.28296875 -13.11889648 31.16210938 C-16.74358815 30.27607364 -17.70558213 28.55728238 -19.75561523 25.51757812 C-22.23198814 21.17947163 -22.52909229 17.42432322 -21.75561523 12.51757812 C-19.66876936 7.21661695 -16.86748773 4.16620233 -11.85149956 1.37838745 C-7.9915699 -0.20694024 -4.12013111 -0.03756852 0 0 Z M-11.30430603 11.36633301 C-13.30761198 14.3357913 -13.32976631 16.00090278 -12.75561523 19.51757812 C-10.31656133 23.49233264 -8.15115406 25.09199796 -3.75561523 26.51757812 C-2.75561523 27.51757812 -2.75561523 27.51757812 -2.38061523 30.83007812 C-2.43427009 35.8557496 -4.38095268 39.80352433 -6.40014648 44.33398438 C-8.14748728 48.43796925 -9.38842492 52.61748641 -10.65795898 56.88867188 C-11.95721462 61.18407573 -13.34361859 65.44563603 -14.75561523 69.70507812 C-15.11127563 70.79103271 -15.11127563 70.79103271 -15.47412109 71.89892578 C-16.75890899 75.76157842 -18.15128133 79.54895096 -19.68920898 83.31835938 C-21.98133943 88.9713002 -23.91067451 94.72542671 -25.81811523 100.51757812 C-26.15649414 101.53335938 -26.49487305 102.54914063 -26.84350586 103.59570312 C-28.40959049 108.32121962 -29.92469948 113.04951451 -31.31420898 117.83007812 C-32.50981947 121.87666703 -34.071062 125.64568407 -35.75561523 129.51757812 C-36.98449733 132.93469531 -38.12145135 136.380536 -39.25561523 139.83007812 C-39.55081055 140.71630859 -39.84600586 141.60253906 -40.15014648 142.515625 C-41.87857575 147.73517681 -43.51116536 152.97238221 -45.03930664 158.25415039 C-45.78511802 160.61080251 -46.67450801 162.86390698 -47.63061523 165.14257812 C-49.7008214 170.15216099 -51.29350509 175.26441763 -52.8293457 180.45751953 C-53.93579964 184.13302411 -55.19625098 187.68275777 -56.65014648 191.23632812 C-59.02736922 197.0742621 -60.98445644 203.02860221 -62.94311523 209.01757812 C-66.4922545 219.78619336 -70.14985901 230.51132589 -73.92431641 241.203125 C-74.28114502 242.22212891 -74.63797363 243.24113281 -75.00561523 244.29101562 C-75.32014648 245.18224121 -75.63467773 246.0734668 -75.95874023 246.99169922 C-79.82202349 259.23726556 -78.84892987 273.75290996 -73.13061523 285.20507812 C-70.14514493 290.32302722 -66.77835798 294.32866391 -61.75561523 297.51757812 C-61.23379103 297.84979622 -60.71196682 298.18201431 -60.17432976 298.52429962 C-52.28480344 302.77585557 -43.71463337 302.07930623 -35.01782227 302.03515625 C-33.22155186 302.04058271 -31.42528591 302.0477083 -29.62902832 302.05639648 C-24.76936173 302.07457313 -19.91003628 302.06758503 -15.05036402 302.05488014 C-9.95193246 302.04471997 -4.8535292 302.05415447 0.24490356 302.0604248 C8.80744645 302.06769375 17.36985116 302.05813463 25.93237305 302.0390625 C35.81232636 302.01730915 45.69194926 302.02433703 55.57189453 302.04636812 C64.07241851 302.06456019 72.57284341 302.06706145 81.07338059 302.05661345 C86.14243931 302.05039763 91.21134311 302.04948978 96.28039169 302.0627594 C101.04940892 302.07437228 105.81800323 302.06619341 110.5869751 302.04318237 C112.33036728 302.0379236 114.07379547 302.03936013 115.817173 302.04823303 C128.57562212 302.10714603 139.60100699 301.15219725 149.23266602 291.93554688 C158.38094748 280.93984546 159.06815044 268.76886198 158.48413086 255.12695312 C157.77556932 247.41503286 154.86158111 240.18606036 151.76000977 233.15039062 C149.66985355 228.14048011 148.152015 223.00015845 146.58227539 217.80859375 C145.3430803 213.78366194 144.01285228 209.86466786 142.39672852 205.97460938 C139.10156176 197.91513819 136.65243604 189.54395898 134.02612305 181.24902344 C131.61309788 173.64264105 129.19272306 166.11527083 126.12915039 158.74023438 C124.30115671 154.14805598 122.96056298 149.39041034 121.53344727 144.66210938 C120.31327945 140.69328396 118.99836544 136.833225 117.40454102 132.99804688 C114.38062235 125.60001475 112.09376249 117.94375873 109.68188477 110.33007812 C108.72624391 107.31446485 107.76593715 104.30039276 106.80297852 101.28710938 C106.59039902 100.61090042 106.37781952 99.93469147 106.15879822 99.23799133 C105.1329988 96.02869852 104.01905429 92.9001618 102.67602539 89.8125 C101.54908295 87.21884121 100.59510525 84.72856755 99.77954102 82.02929688 C99.53655273 81.23974609 99.29356445 80.45019531 99.04321289 79.63671875 C98.55590608 78.02744293 98.06892204 76.41806933 97.58227539 74.80859375 C96.04577305 69.8180017 94.26875261 65.00427403 92.29492188 60.17114258 C90.35237025 55.26442782 88.67777413 50.26786801 86.99438477 45.26757812 C86.63086914 44.21828125 86.26735352 43.16898438 85.89282227 42.08789062 C85.37848633 40.56035156 85.37848633 40.56035156 84.85375977 39.00195312 C84.5440625 38.09155273 84.23436523 37.18115234 83.9152832 36.24316406 C83.166479 33.20107888 82.97557377 30.6382193 83.24438477 27.51757812 C85.43188477 25.95507812 85.43188477 25.95507812 88.24438477 24.51757812 C91.42696503 21.90078991 93.03744802 20.53156819 93.86938477 16.45507812 C93.47991644 13.41491116 93.47991644 13.41491116 91.29335022 11.36633301 C87.07392147 8.80786207 83.68240772 8.95554686 78.8359375 9 C77.89553619 8.99299072 76.95513489 8.98598145 75.98623657 8.97875977 C72.88318201 8.96117935 69.78104207 8.97280201 66.67797852 8.98632812 C64.51994146 8.98363346 62.36190558 8.97975125 60.20387268 8.97473145 C55.68381171 8.96883651 51.16406714 8.97740029 46.64404297 8.99609375 C40.84761886 9.01889668 35.05193502 9.00575129 29.25553799 8.98180389 C24.80058706 8.96735762 20.34581198 8.97194635 15.89085579 8.98231506 C13.75339737 8.98498487 11.61592302 8.98170371 9.4784832 8.97239685 C6.49303687 8.96224927 3.50879407 8.97770712 0.5234375 9 C-0.36134781 8.99190308 -1.24613312 8.98380615 -2.1577301 8.97546387 C-7.06981733 9.03214757 -7.06981733 9.03214757 -11.30430603 11.36633301 Z " fill="#0D0D0C" transform="translate(215.755615234375,100.482421875)"/>
<path d="M0 0 C4.44338723 1.42968218 7.46609281 3.85288659 10.8125 7 C11.60188965 7.73802856 11.60188965 7.73802856 12.40722656 8.4909668 C34.41041164 29.44782304 41.3281757 56.83858848 42.05871367 86.37375498 C42.15523845 92.80109812 42.14707179 99.22882281 42.14526367 105.65673828 C42.148262 107.80219073 42.15166606 109.94764265 42.15544128 112.09309387 C42.16421713 117.88062405 42.16661668 123.66813941 42.16725707 129.4556756 C42.16797125 133.08300967 42.1701125 136.71034004 42.17275429 140.33767319 C42.18198664 153.02492255 42.18609184 165.71216145 42.18530273 178.39941406 C42.18470259 190.17303608 42.19524757 201.94661218 42.2110464 213.72022259 C42.22417812 223.87278841 42.22948428 234.02533932 42.22884732 244.17791355 C42.22859398 250.22190843 42.23135389 256.26586246 42.24202538 262.30984879 C42.25180167 268.00139803 42.25172116 273.69286815 42.24450874 279.38442039 C42.24347462 281.45581238 42.24575468 283.52720954 42.2518692 285.59859276 C42.34988105 321.14526354 38.65422376 352.47169707 13 379 C12.33613281 379.68964844 11.67226563 380.37929688 10.98828125 381.08984375 C-13.1989405 404.35564753 -48.04344394 405.15411033 -79.52734375 405.14526367 C-81.67102618 405.14826142 -83.81470808 405.15166536 -85.95838928 405.15544128 C-91.74604582 405.1642242 -97.53368754 405.16661702 -103.3213501 405.16725707 C-106.94885408 405.16797098 -110.57635436 405.17011177 -114.20385742 405.17275429 C-126.89225501 405.18198985 -139.58064213 405.18609155 -152.26904297 405.18530273 C-164.0420562 405.18470289 -175.81502348 405.19524099 -187.58802509 405.2110464 C-197.73973713 405.22418291 -207.89143426 405.22948406 -218.04315472 405.22884732 C-224.08663745 405.22859407 -230.13007931 405.2313489 -236.17355347 405.24202538 C-241.86673411 405.25180949 -247.55983567 405.25171599 -253.25301933 405.24450874 C-255.32399043 405.24347548 -257.39496672 405.24574932 -259.46592903 405.2518692 C-294.29904972 405.34800759 -326.9401061 402.36751297 -353.18359375 376.8984375 C-380.14565364 349.68968984 -380.17151534 311.14030454 -380.12939453 275.3203125 C-380.13075419 273.33998584 -380.13253726 271.35965944 -380.13470459 269.3793335 C-380.13921187 264.06528843 -380.13751734 258.75126307 -380.1343255 253.43721771 C-380.13176686 247.83591159 -380.1341491 242.23460698 -380.13571167 236.63330078 C-380.13752323 227.23274436 -380.13515377 217.83219584 -380.13037109 208.43164062 C-380.12493044 197.61391377 -380.12669382 186.79620578 -380.1321975 175.97847939 C-380.13675762 166.63601331 -380.13736506 157.29355287 -380.13475883 147.95108604 C-380.13321194 142.39514228 -380.13295819 136.83920733 -380.13629532 131.28326416 C-380.13921646 126.05622743 -380.1371217 120.82921466 -380.13140106 115.60218048 C-380.13009595 113.70129689 -380.13042847 111.80041123 -380.13266373 109.8995285 C-380.14283173 100.36204707 -380.02422058 90.84865566 -379.57003784 81.32080078 C-379.53339685 80.52866621 -379.49675585 79.73653164 -379.45900452 78.92039299 C-378.06517081 52.63936132 -370.34037012 26.79007683 -350.43457031 8.56689453 C-347.38572655 5.91772955 -344.23273289 3.41986002 -341 1 C-340.34 1.33 -339.68 1.66 -339 2 C-339.76183594 2.65484375 -340.52367187 3.3096875 -341.30859375 3.984375 C-362.54822942 22.59884835 -372.03522888 46.18430112 -374 74 C-374.12299201 77.31456377 -374.13974614 80.62349239 -374.13371277 83.94009399 C-374.1371111 85.34502564 -374.1371111 85.34502564 -374.14057809 86.77833974 C-374.14685349 89.88300114 -374.14609292 92.98761816 -374.14526367 96.09228516 C-374.14825923 98.33230647 -374.15166267 100.57232728 -374.15544128 102.81234741 C-374.16424584 108.87463038 -374.16661793 114.93689921 -374.16725707 120.99918795 C-374.16796967 124.7939789 -374.17010799 128.5887663 -374.17275429 132.38355637 C-374.18152036 144.96008385 -374.18617545 157.53660336 -374.18542381 170.11313327 C-374.18538386 170.78945652 -374.1853439 171.46577976 -374.18530273 172.16259766 C-374.18526185 172.83975926 -374.18522097 173.51692086 -374.18517885 174.21460252 C-374.18477285 185.17612877 -374.19433376 196.1376206 -374.2084411 207.0991369 C-374.2228555 218.38952284 -374.22952597 229.67989257 -374.22884732 240.97028959 C-374.22859338 247.29479031 -374.23138706 253.61925206 -374.24202538 259.94374466 C-374.2517679 265.89787562 -374.25174367 271.85193084 -374.24450874 277.80606461 C-374.24347046 279.97911185 -374.24578028 282.15216398 -374.2518692 284.32520294 C-374.29188331 299.60745713 -374.205615 315.18831863 -369.9375 330 C-369.62377441 331.0993689 -369.62377441 331.0993689 -369.30371094 332.22094727 C-362.6293643 354.04326034 -347.89372466 371.81917227 -328.0390625 382.92578125 C-307.81807971 393.63534013 -285.68866388 394.45564531 -263.27514648 394.38818359 C-260.9680761 394.39225995 -258.66100768 394.39760774 -256.35394287 394.40411377 C-250.14945423 394.41766586 -243.94511703 394.41253946 -237.7406261 394.40297651 C-231.21128133 394.3953175 -224.68194849 394.40244261 -218.15260315 394.40713501 C-206.49476354 394.41351765 -194.83698697 394.40366953 -183.17915828 394.388357 C-172.6500855 394.37495436 -162.12111201 394.37728942 -151.59204102 394.39111328 C-139.30637105 394.40723632 -127.02076418 394.41310787 -114.73508507 394.40427649 C-108.25303237 394.39962671 -101.77104775 394.39890034 -95.28899956 394.40888596 C-89.19270477 394.41762346 -83.09659543 394.41141113 -77.00032043 394.39420319 C-74.77812061 394.39027447 -72.55590487 394.39130938 -70.33371162 394.39799118 C-39.3352036 394.48252597 -11.95103898 389.29310192 11.3125 367.0625 C23.01684229 354.73070844 30.9167055 338.67858812 34 322 C34.16661731 321.12610721 34.33323462 320.25221441 34.50490093 319.35184002 C36.41944236 307.87277445 36.28914473 296.47119227 36.2746582 284.86450195 C36.2790125 282.54846534 36.28419803 280.23243016 36.29014587 277.91639709 C36.30347145 271.65993519 36.30412162 265.40353395 36.30158257 259.14706063 C36.30050824 253.90658691 36.30540813 248.66612524 36.310188 243.42565411 C36.32189315 230.34549356 36.32107093 217.26536733 36.31463119 204.18520459 C36.30946752 192.8695416 36.32070825 181.55396484 36.33972941 170.2383189 C36.35918234 158.57491783 36.36735063 146.9115574 36.36360615 135.24814004 C36.36180167 128.71792505 36.36434537 122.18778901 36.37832069 115.65758705 C36.39098515 109.51049423 36.38887411 103.36357265 36.37590981 97.21648216 C36.37356294 94.97493301 36.37620987 92.73337148 36.38453293 90.49183655 C36.47883373 63.09536563 33.25771061 36.74228368 14.69921875 15.12109375 C13.11308197 13.1411575 12.12277448 11.25539786 11 9 C9.06669397 7.90833725 9.06669397 7.90833725 7 7 C6.505 6.484375 6.01 5.96875 5.5 5.4375 C3.72539815 3.73683989 2.38993744 3.41205818 0 3 C0 2.01 0 1.02 0 0 Z " fill="#000000" transform="translate(425,67)"/>
<path d="M0 0 C6.26425038 3.15300602 10.21875924 7.36721523 12.46875 14.1171875 C13.47500518 21.27597436 11.70710879 26.33444045 7.46875 32.1171875 C3.46580432 36.02005954 -0.22697955 38.0302339 -5.84375 38.2421875 C-6.730625 38.2009375 -7.6175 38.1596875 -8.53125 38.1171875 C-8.60601562 38.6740625 -8.68078125 39.2309375 -8.7578125 39.8046875 C-10.0967132 47.57556212 -13.36668923 52.66303833 -19.59375 57.4921875 C-26.45960825 61.29032185 -33.05148564 62.62293145 -40.77734375 60.5 C-47.5183016 57.53029927 -51.77408706 52.06468662 -55.46875 45.8671875 C-57.46206811 38.83194712 -57.86939582 31.88635359 -54.46875 25.2421875 C-50.78108417 19.48608587 -46.11462934 15.17864972 -39.53125 13.1171875 C-36.19921875 12.921875 -36.19921875 12.921875 -32.71875 12.9921875 C-30.97658203 13.01925781 -30.97658203 13.01925781 -29.19921875 13.046875 C-28.31878906 13.07007813 -27.43835938 13.09328125 -26.53125 13.1171875 C-26.23605469 12.34503906 -25.94085938 11.57289063 -25.63671875 10.77734375 C-23.5678889 5.79899348 -20.46544985 2.37041504 -15.64453125 -0.1484375 C-10.46071645 -1.9498371 -5.15788459 -1.79889185 0 0 Z " fill="#770460" transform="translate(290.53125,159.8828125)"/>
<path d="M0 0 C6.81378024 3.76004336 10.57765198 9.13186646 14 15.9765625 C14.23029956 18.34779496 14.41119942 20.72398193 14.5625 23.1015625 C14.64628906 24.38289063 14.73007812 25.66421875 14.81640625 26.984375 C14.87699219 27.97179687 14.93757813 28.95921875 15 29.9765625 C16.10214844 29.00783203 16.10214844 29.00783203 17.2265625 28.01953125 C20.67531691 25.47911075 22.54190679 25.20308828 26.70703125 25.3984375 C31.04475604 26.49210576 33.66488801 29.26358939 36 32.9765625 C36.86366408 37.45191273 36.37030369 39.29980059 34.1875 43.2890625 C31.90782146 46.08981042 30.31670724 47.74446495 26.6953125 48.3828125 C21.93794146 48.55633363 19.76941664 48.61774303 16 45.4765625 C13.58604408 41.91107284 12.79467705 38.16667784 12 33.9765625 C11.70609375 34.48445313 11.4121875 34.99234375 11.109375 35.515625 C6.79202417 42.14052541 1.40482701 45.36815247 -6 47.9765625 C-12.06123398 49.1243079 -17.58607978 47.82116465 -23 44.9765625 C-28.86354256 40.9525627 -32.75733557 35.70455579 -35 28.9765625 C-35.88578982 20.9820291 -35.46579328 14.86447123 -30.85546875 8.140625 C-22.94274744 -1.0881068 -11.60903712 -3.96037464 0 0 Z " fill="#C229A3" transform="translate(297,224.0234375)"/>
<path d="M0 0 C5.79440983 3.0185284 10.33581867 6.72620602 12.45703125 13.08984375 C13.28281174 21.22221366 13.37220027 27.72283684 8.17578125 34.31640625 C3.3690481 39.2760809 -1.43257535 41.18081472 -8.29296875 41.46484375 C-14.61917497 41.39030818 -18.61823005 38.93271954 -23.078125 34.59765625 C-27.81545116 29.26643789 -29.02777827 24.62450883 -28.8515625 17.6484375 C-28.03092592 10.84442532 -24.51080847 6.53640425 -19.32421875 2.31640625 C-13.39568837 -1.76595897 -6.84916371 -2.45139039 0 0 Z " fill="#C32BA4" transform="translate(227.54296875,209.91015625)"/>
<path d="M0 0 C6.26979799 3.14011513 10.22385726 7.36688427 12.47265625 14.11328125 C13.47891143 21.27206811 11.71101504 26.3305342 7.47265625 32.11328125 C3.46971057 36.01615329 -0.2230733 38.02632765 -5.83984375 38.23828125 C-6.72671875 38.19703125 -7.61359375 38.15578125 -8.52734375 38.11328125 C-8.85734375 39.10328125 -9.18734375 40.09328125 -9.52734375 41.11328125 C-9.52734375 40.12328125 -9.52734375 39.13328125 -9.52734375 38.11328125 C-10.53796875 38.07203125 -11.54859375 38.03078125 -12.58984375 37.98828125 C-18.10996313 37.18372944 -21.37048645 33.65710413 -24.85546875 29.546875 C-28.29652055 24.51857748 -28.60316233 19.00545688 -27.52734375 13.11328125 C-25.11571244 7.40986121 -21.23856502 2.91229462 -15.79296875 -0.0703125 C-10.48979963 -1.98128206 -5.29870492 -1.85905103 0 0 Z " fill="#C228A2" transform="translate(290.52734375,159.88671875)"/>
<path d="M0 0 C3.63467079 1.62400184 4.77408696 2.66113044 7 6 C7.68343706 9.77688904 7.85107095 13.47186889 5.94921875 16.88671875 C3.52595643 19.83895279 1.61372008 21.7743648 -2.20703125 22.30859375 C-9.11171989 22.65020503 -9.11171989 22.65020503 -11.734375 20.73046875 C-14.39320672 17.51641041 -15.90097535 14.85821359 -16.375 10.75 C-15.88072704 5.80727042 -14.46171699 4.46171699 -11 1 C-7.55359623 -0.72320188 -3.7757718 -0.3723512 0 0 Z " fill="#C32CA4" transform="translate(251,134)"/>
<path d="M0 0 C3.99502588 0.04474429 5.98734955 0.8657367 8.9375 3.5625 C11.28571053 6.27113354 11.8617803 7.43149793 12.5625 11.0625 C11.76113451 15.06932746 10.44465792 17.3429917 7.875 20.5 C3.62452552 23.33364966 -0.1398795 23.3731899 -5.125 22.5 C-8.68923351 19.79118254 -9.76582021 18.37671442 -10.59375 14.05078125 C-10.8748257 9.34979021 -10.68576008 7.20454471 -7.6875 3.4375 C-6.841875 2.798125 -5.99625 2.15875 -5.125 1.5 C-3.58558594 -0.03941406 -2.13976083 0.14506853 0 0 Z " fill="#770560" transform="translate(321.125,249.5)"/>
<path d="M0 0 C4.42610196 0.36279524 6.39743509 1.54792364 9.8125 4.3125 C11.57963963 7.84677927 11.59669127 11.475105 10.8125 15.3125 C8.17696472 19.06775692 5.19777147 21.00152069 0.75 22 C-3.36593703 21.03669559 -5.1674501 19.26231618 -8.1875 16.3125 C-9.79479993 13.09790014 -9.80680855 9.78861897 -9.1875 6.3125 C-6.75 3.375 -6.75 3.375 -4.1875 1.3125 C-3.1875 0.3125 -3.1875 0.3125 0 0 Z " fill="#780660" transform="translate(235.1875,256.6875)"/>
<path d="M0 0 C1.134375 0.020625 2.26875 0.04125 3.4375 0.0625 C3.4375 0.3925 3.4375 0.7225 3.4375 1.0625 C2.365 1.31 1.2925 1.5575 0.1875 1.8125 C-3.6694859 3.09816197 -5.25210039 3.77462363 -7.5625 7.0625 C-8.37015878 10.70971696 -8.37015878 10.70971696 -8.5625 14.0625 C-8.8925 14.0625 -9.2225 14.0625 -9.5625 14.0625 C-10.17764196 6.80382492 -10.17764196 6.80382492 -7.125 3.125 C-6.279375 2.444375 -5.43375 1.76375 -4.5625 1.0625 C-3.5625 0.0625 -3.5625 0.0625 0 0 Z " fill="#953F83" transform="translate(235.5625,256.9375)"/>
<path d="M0 0 C0.33 0 0.66 0 1 0 C2.33257403 16.8929385 2.33257403 16.8929385 1 24 C0.67 24 0.34 24 0 24 C-1.28162626 15.88303369 -0.6976874 8.14684214 0 0 Z " fill="#D385C3" transform="translate(310,240)"/>
<path d="M0 0 C0 0.33 0 0.66 0 1 C-1.7634375 1.061875 -1.7634375 1.061875 -3.5625 1.125 C-8.67389492 1.71722936 -11.50123478 4.42469929 -15 8 C-14.1342843 5.33070993 -13.27808762 3.32258164 -11.4375 1.1875 C-7.71521629 -0.62592027 -4.06856367 -0.23472483 0 0 Z " fill="#9C4B8B" transform="translate(326,250)"/>
<path d="M0 0 C0.66 0.33 1.32 0.66 2 1 C-0.97 3.97 -3.94 6.94 -7 10 C-7 6.04435836 -5.59478606 4.89133304 -3 2 C-2.01 1.34 -1.02 0.68 0 0 Z " fill="#CC4BB2" transform="translate(273,226)"/>
<path d="M0 0 C0.66 0.33 1.32 0.66 2 1 C-0.97 3.97 -3.94 6.94 -7 10 C-7 6.04435836 -5.59478606 4.89133304 -3 2 C-2.01 1.34 -1.02 0.68 0 0 Z " fill="#CC4CB2" transform="translate(273,161)"/>
<path d="M0 0 C0.66 0.33 1.32 0.66 2 1 C-0.64 3.64 -3.28 6.28 -6 9 C-6.33 8.34 -6.66 7.68 -7 7 C-4.66666667 4.66666667 -2.33333333 2.33333333 0 0 Z " fill="#343331" transform="translate(203,102)"/>
</svg>
